<svg width="24" height="22" viewBox="0 0 24 22" fill="none" xmlns="http://www.w3.org/2000/svg">
<path d="M21.8906 2.62109H2.10939C1.78469 2.62109 1.4807 2.69427 1.20569 2.81488L11.9531 12.6667L14.362 10.5446C14.362 10.5446 14.3622 10.5444 14.3622 10.5443C14.3623 10.5442 14.3625 10.5441 14.3625 10.5441L22.7947 2.81505C22.5196 2.69436 22.2154 2.62109 21.8906 2.62109Z" fill="#444444"/>
<path d="M23.7889 3.72656L15.8538 11.0001L23.7886 18.2737C23.9202 18.0216 24 17.7429 24 17.4453V4.55466C24 4.25718 23.9204 3.97857 23.7889 3.72656Z" fill="#444444"/>
<path d="M0.211406 3.72632C0.0798281 3.97842 0 4.25707 0 4.55471V17.4453C0 17.7428 0.0797344 18.0215 0.211219 18.2735L8.14636 11L0.211406 3.72632Z" fill="#444444"/>
<path d="M14.8595 11.9116L12.4503 14.0339C12.3129 14.1598 12.133 14.2228 11.9532 14.2228C11.7733 14.2228 11.5933 14.1598 11.456 14.0339L9.14061 11.9115L1.20532 19.185C1.48038 19.3057 1.78456 19.379 2.10935 19.379H21.8906C22.2153 19.379 22.5193 19.3058 22.7943 19.1852L14.8595 11.9116Z" fill="#444444"/>
</svg>
