<svg width="15" height="15" viewBox="0 0 15 15" fill="none" xmlns="http://www.w3.org/2000/svg">
<path d="M14.3086 14.6264L13.1878 4.18431C13.1691 4.01619 13.0197 3.88543 12.8515 3.88543H10.7781V3.25031C10.7781 1.45704 9.32103 0 7.52776 0C5.73448 0 4.27744 1.45704 4.27744 3.25031V3.88543H2.14793C1.97981 3.88543 1.83037 4.01619 1.81169 4.18431L0.690894 14.6264C0.672214 14.7198 0.709574 14.8132 0.765614 14.8879C0.821654 14.9626 0.915054 15 1.00845 15H13.991C14.0844 15 14.1778 14.9626 14.2339 14.8879C14.2899 14.8132 14.3273 14.7198 14.3086 14.6264ZM10.4418 5.7721C10.6099 5.7721 10.7407 5.90286 10.7407 6.07098C10.7407 6.2391 10.6099 6.36986 10.4418 6.36986C10.2737 6.36986 10.1429 6.2391 10.1429 6.07098C10.1429 5.90286 10.2737 5.7721 10.4418 5.7721ZM4.94992 3.25031C4.94992 1.83064 6.10808 0.672478 7.52776 0.672478C8.94743 0.672478 10.1056 1.83064 10.1056 3.25031V3.88543H4.94992V3.25031ZM4.61368 5.7721C4.7818 5.7721 4.91256 5.90286 4.91256 6.07098C4.91256 6.2391 4.7818 6.36986 4.61368 6.36986C4.44556 6.36986 4.3148 6.2391 4.3148 6.07098C4.3148 5.90286 4.44556 5.7721 4.61368 5.7721ZM1.40073 14.3088L2.44681 4.53923H4.27744V5.15567C3.90385 5.28643 3.64233 5.64135 3.64233 6.0523C3.64233 6.57534 4.07197 7.00498 4.595 7.00498C5.11804 7.00498 5.54768 6.57534 5.54768 6.0523C5.54768 5.64135 5.28616 5.28643 4.91256 5.15567V4.53923H10.0682V5.15567C9.69463 5.28643 9.43311 5.64135 9.43311 6.0523C9.43311 6.57534 9.86275 7.00498 10.3858 7.00498C10.9088 7.00498 11.3385 6.57534 11.3385 6.0523C11.3385 5.64135 11.0769 5.28643 10.7033 5.15567V4.53923H12.6087L13.6548 14.3088H1.40073Z" fill="#737F8A"/>
</svg>
