<svg width="13" height="17" viewBox="0 0 13 17" fill="none" xmlns="http://www.w3.org/2000/svg">
<path d="M12.6301 6.01734L9.45332 4.78687C9.61946 4.31476 9.67 3.8097 9.6007 3.31403C9.5314 2.81836 9.34428 2.34653 9.05502 1.93809C8.76576 1.52966 8.3828 1.19651 7.93825 0.9666C7.49369 0.736686 7.00049 0.616699 6.5 0.616699C5.99951 0.616699 5.50631 0.736686 5.06175 0.9666C4.6172 1.19651 4.23424 1.52966 3.94498 1.93809C3.65573 2.34653 3.4686 2.81836 3.3993 3.31403C3.33 3.8097 3.38054 4.31476 3.54668 4.78687L0.369922 6.01734C0.305796 6.04236 0.250718 6.08615 0.211896 6.14299C0.173074 6.19983 0.152318 6.26707 0.152344 6.3359V13.7046C0.152324 13.7736 0.173149 13.8409 0.212083 13.8978C0.251017 13.9547 0.306242 13.9985 0.370508 14.0234L6.37637 16.3515C6.41581 16.3668 6.45772 16.3746 6.5 16.3746C6.54185 16.3737 6.58317 16.3651 6.62188 16.3492L6.62363 16.3515L12.6301 14.0234C12.6942 13.9984 12.7493 13.9545 12.7882 13.8977C12.827 13.8408 12.8477 13.7735 12.8477 13.7046V6.3359C12.8477 6.26707 12.8269 6.19983 12.7881 6.14299C12.7493 6.08615 12.6942 6.04236 12.6301 6.01734ZM11.5607 6.3359L10.452 6.76559L8.61445 6.05855C8.82379 5.86594 9.00605 5.64584 9.15625 5.40426L11.5607 6.3359ZM7.94219 6.53238L9.50469 7.13336L8.62246 7.47516L7.0041 6.84293C7.33135 6.79007 7.64804 6.68524 7.94219 6.53238ZM9.00566 8.05953L10.1535 7.61461V9.03863L9.96152 8.91344C9.89437 8.86972 9.81399 8.85098 9.73443 8.86047C9.65486 8.86997 9.58116 8.9071 9.52617 8.96539L9.00566 9.51773V8.05953ZM6.5 1.30895C6.98402 1.30895 7.45718 1.45248 7.85963 1.72138C8.26208 1.99029 8.57575 2.3725 8.76098 2.81968C8.94621 3.26686 8.99467 3.75893 8.90024 4.23365C8.80581 4.70837 8.57273 5.14443 8.23048 5.48669C7.88822 5.82895 7.45216 6.06203 6.97744 6.15645C6.50271 6.25088 6.01065 6.20242 5.56347 6.01719C5.11629 5.83196 4.73408 5.51829 4.46517 5.11584C4.19626 4.71339 4.05273 4.24024 4.05273 3.75621C4.05346 3.10738 4.31153 2.48533 4.77032 2.02653C5.22912 1.56774 5.85117 1.30967 6.5 1.30895ZM4.03906 5.68395L3.58164 5.50523L3.84355 5.40367C3.90357 5.50078 3.96883 5.59454 4.03906 5.68453V5.68395ZM2.63887 5.87066L7.67871 7.84078L6.5 8.29762L1.43926 6.3359L2.63887 5.87066ZM0.835938 13.4705V6.83512L6.1582 8.8984V15.5337L0.835938 13.4705ZM6.8418 15.5337V8.8984L8.32207 8.32418V10.3791C8.3221 10.4475 8.34269 10.5144 8.38117 10.571C8.41965 10.6276 8.47425 10.6714 8.53789 10.6966C8.57795 10.7127 8.62071 10.7209 8.66387 10.7209C8.71048 10.7209 8.7566 10.7114 8.79939 10.6929C8.84218 10.6744 8.88074 10.6474 8.91269 10.6134L9.82773 9.64215L10.3088 9.95465C10.3603 9.98798 10.4199 10.0068 10.4813 10.0091C10.5426 10.0115 10.6035 9.99727 10.6574 9.96798C10.7114 9.93868 10.7565 9.8954 10.7879 9.84267C10.8193 9.78994 10.836 9.72971 10.8361 9.66832V7.34957L12.1641 6.83512V13.4705L6.8418 15.5337Z" fill="#737F8A"/>
<path d="M5.89149 4.76202C5.95453 4.81537 6.03476 4.84409 6.11734 4.84287C6.19992 4.84165 6.27927 4.81057 6.34071 4.75538L7.99832 3.26553C8.03345 3.23603 8.06228 3.19976 8.0831 3.15889C8.10391 3.11801 8.11629 3.07336 8.11948 3.0276C8.12268 2.98184 8.11663 2.9359 8.1017 2.89253C8.08677 2.84915 8.06326 2.80923 8.03257 2.77513C8.00188 2.74104 7.96465 2.71347 7.92308 2.69407C7.88151 2.67466 7.83647 2.66383 7.79063 2.6622C7.74478 2.66058 7.69908 2.6682 7.65625 2.68461C7.61341 2.70101 7.57431 2.72588 7.54129 2.75772L6.10536 4.04854L5.45145 3.4958C5.38222 3.43727 5.29257 3.40863 5.20223 3.4162C5.11189 3.42376 5.02825 3.46691 4.96971 3.53614C4.91118 3.60537 4.88254 3.69502 4.89011 3.78536C4.89767 3.8757 4.94081 3.95934 5.01005 4.01787L5.89149 4.76202Z" fill="#737F8A"/>
</svg>
