<svg width="11" height="17" viewBox="0 0 11 17" fill="none" xmlns="http://www.w3.org/2000/svg">
<path d="M10.6186 2.8847H8.60898V2.36712C8.60901 2.32223 8.60019 2.27777 8.58302 2.23629C8.56585 2.19481 8.54068 2.15712 8.50893 2.12538C8.47719 2.09363 8.4395 2.06846 8.39802 2.05129C8.35654 2.03412 8.31208 2.0253 8.26719 2.02533H7.20801C7.12908 1.63049 6.91578 1.27521 6.60441 1.01992C6.29304 0.764635 5.90284 0.625122 5.5002 0.625122C5.09755 0.625122 4.70735 0.764635 4.39598 1.01992C4.08461 1.27521 3.87131 1.63049 3.79238 2.02533H2.7332C2.68831 2.0253 2.64385 2.03412 2.60237 2.05129C2.56089 2.06846 2.5232 2.09363 2.49146 2.12538C2.45971 2.15712 2.43454 2.19481 2.41737 2.23629C2.4002 2.27777 2.39138 2.32223 2.39141 2.36712V2.8847H0.381836C0.336943 2.88468 0.292486 2.8935 0.251006 2.91067C0.209526 2.92783 0.171836 2.95301 0.140092 2.98475C0.108348 3.0165 0.0831729 3.05419 0.0660051 3.09567C0.0488373 3.13715 0.0400134 3.1816 0.0400391 3.2265V16.0327C0.0400134 16.0776 0.0488373 16.1221 0.0660051 16.1636C0.0831729 16.2051 0.108348 16.2427 0.140092 16.2745C0.171836 16.3062 0.209526 16.3314 0.251006 16.3486C0.292486 16.3657 0.336943 16.3746 0.381836 16.3745H10.6186C10.6634 16.3746 10.7079 16.3657 10.7494 16.3486C10.7909 16.3314 10.8286 16.3062 10.8603 16.2745C10.892 16.2427 10.9172 16.2051 10.9344 16.1636C10.9516 16.1221 10.9604 16.0776 10.9604 16.0327V3.2265C10.9604 3.1816 10.9516 3.13715 10.9344 3.09567C10.9172 3.05419 10.892 3.0165 10.8603 2.98475C10.8286 2.95301 10.7909 2.92783 10.7494 2.91067C10.7079 2.8935 10.6634 2.88468 10.6186 2.8847ZM3.075 2.70892H4.10039C4.19104 2.70892 4.27798 2.67291 4.34208 2.60881C4.40618 2.54471 4.44219 2.45777 4.44219 2.36712C4.44219 2.08652 4.55366 1.81741 4.75207 1.619C4.95049 1.42058 5.21959 1.30912 5.5002 1.30912C5.7808 1.30912 6.04991 1.42058 6.24832 1.619C6.44674 1.81741 6.5582 2.08652 6.5582 2.36712C6.5582 2.45777 6.59421 2.54471 6.65831 2.60881C6.72241 2.67291 6.80935 2.70892 6.9 2.70892H7.92539V4.08099H3.075V2.70892ZM10.2768 15.6911H0.723633V3.56829H2.39141V4.42259C2.39138 4.46748 2.4002 4.51194 2.41737 4.55342C2.43454 4.5949 2.45971 4.63259 2.49146 4.66433C2.5232 4.69608 2.56089 4.72125 2.60237 4.73842C2.64385 4.75559 2.68831 4.76441 2.7332 4.76439H8.26719C8.31208 4.76441 8.35654 4.75559 8.39802 4.73842C8.4395 4.72125 8.47719 4.69608 8.50893 4.66433C8.54068 4.63259 8.56585 4.5949 8.58302 4.55342C8.60019 4.51194 8.60901 4.46748 8.60898 4.42259V3.56829H10.2768V15.6911Z" fill="#737F8A"/>
<path d="M3.36774 9.21692H2.09821C2.05331 9.21689 2.00886 9.22572 1.96738 9.24288C1.92589 9.26005 1.88821 9.28523 1.85646 9.31697C1.82472 9.34872 1.79954 9.38641 1.78237 9.42789C1.76521 9.46937 1.75638 9.51382 1.75641 9.55872V10.8283C1.75638 10.8731 1.76521 10.9176 1.78237 10.9591C1.79954 11.0006 1.82472 11.0383 1.85646 11.07C1.88821 11.1017 1.92589 11.1269 1.96738 11.1441C2.00886 11.1612 2.05331 11.1701 2.09821 11.17H3.36774C3.41263 11.1701 3.45709 11.1612 3.49857 11.1441C3.54005 11.1269 3.57774 11.1017 3.60948 11.07C3.64123 11.0383 3.6664 11.0006 3.68357 10.9591C3.70074 10.9176 3.70956 10.8731 3.70954 10.8283V9.55872C3.70956 9.51382 3.70074 9.46937 3.68357 9.42789C3.6664 9.38641 3.64123 9.34872 3.60948 9.31697C3.57774 9.28523 3.54005 9.26005 3.49857 9.24288C3.45709 9.22572 3.41263 9.21689 3.36774 9.21692ZM3.02594 10.4865H2.44V9.90051H3.02594V10.4865Z" fill="#737F8A"/>
<path d="M3.36774 12.0988H2.09821C2.05331 12.0987 2.00886 12.1076 1.96738 12.1247C1.92589 12.1419 1.88821 12.1671 1.85646 12.1988C1.82472 12.2306 1.79954 12.2682 1.78237 12.3097C1.76521 12.3512 1.75638 12.3957 1.75641 12.4406V13.7101C1.75638 13.755 1.76521 13.7994 1.78237 13.8409C1.79954 13.8824 1.82472 13.9201 1.85646 13.9518C1.88821 13.9836 1.92589 14.0088 1.96738 14.0259C2.00886 14.0431 2.05331 14.0519 2.09821 14.0519H3.36774C3.41263 14.0519 3.45709 14.0431 3.49857 14.0259C3.54005 14.0088 3.57774 13.9836 3.60948 13.9518C3.64123 13.9201 3.6664 13.8824 3.68357 13.8409C3.70074 13.7994 3.70956 13.755 3.70954 13.7101V12.4406C3.70956 12.3957 3.70074 12.3512 3.68357 12.3097C3.6664 12.2682 3.64123 12.2306 3.60948 12.1988C3.57774 12.1671 3.54005 12.1419 3.49857 12.1247C3.45709 12.1076 3.41263 12.0987 3.36774 12.0988ZM3.02594 13.3683H2.44V12.7824H3.02594V13.3683Z" fill="#737F8A"/>
<path d="M4.76758 6.97015C4.67693 6.97015 4.58999 7.00616 4.52589 7.07026C4.46179 7.13436 4.42578 7.2213 4.42578 7.31195C4.42578 7.4026 4.46179 7.48954 4.52589 7.55364C4.58999 7.61774 4.67693 7.65375 4.76758 7.65375H8.64941C8.74006 7.65375 8.827 7.61774 8.8911 7.55364C8.9552 7.48954 8.99121 7.4026 8.99121 7.31195C8.99121 7.2213 8.9552 7.13436 8.8911 7.07026C8.827 7.00616 8.74006 6.97015 8.64941 6.97015H4.76758Z" fill="#737F8A"/>
<path d="M8.64941 9.85168H4.76758C4.67693 9.85168 4.58999 9.8877 4.52589 9.9518C4.46179 10.0159 4.42578 10.1028 4.42578 10.1935C4.42578 10.2841 4.46179 10.3711 4.52589 10.4352C4.58999 10.4993 4.67693 10.5353 4.76758 10.5353H8.64941C8.74006 10.5353 8.827 10.4993 8.8911 10.4352C8.9552 10.3711 8.99121 10.2841 8.99121 10.1935C8.99121 10.1028 8.9552 10.0159 8.8911 9.9518C8.827 9.8877 8.74006 9.85168 8.64941 9.85168Z" fill="#737F8A"/>
<path d="M8.64941 12.7335H4.76758C4.67693 12.7335 4.58999 12.7695 4.52589 12.8336C4.46179 12.8977 4.42578 12.9847 4.42578 13.0753C4.42578 13.166 4.46179 13.2529 4.52589 13.317C4.58999 13.3811 4.67693 13.4171 4.76758 13.4171H8.64941C8.74006 13.4171 8.827 13.3811 8.8911 13.317C8.9552 13.2529 8.99121 13.166 8.99121 13.0753C8.99121 12.9847 8.9552 12.8977 8.8911 12.8336C8.827 12.7695 8.74006 12.7335 8.64941 12.7335Z" fill="#737F8A"/>
<path d="M2.38759 7.81026C2.42152 7.83965 2.4609 7.86206 2.50349 7.87621C2.54608 7.89037 2.59104 7.89599 2.63581 7.89277C2.68057 7.88954 2.72426 7.87752 2.76438 7.8574C2.8045 7.83728 2.84026 7.80945 2.86962 7.7755L3.62665 6.90089C3.65604 6.86696 3.67846 6.82757 3.69264 6.78497C3.70681 6.74237 3.71245 6.6974 3.70924 6.65262C3.70603 6.60784 3.69403 6.56413 3.67393 6.52399C3.65382 6.48385 3.62601 6.44806 3.59208 6.41867C3.55815 6.38927 3.51876 6.36685 3.47616 6.35268C3.43356 6.33851 3.38859 6.33287 3.34381 6.33608C3.29903 6.33929 3.25532 6.35129 3.21518 6.37139C3.17504 6.39149 3.13925 6.4193 3.10985 6.45324L2.57646 7.06964L2.32255 6.84991C2.25397 6.79055 2.16461 6.76087 2.07414 6.76739C1.98367 6.77391 1.89949 6.8161 1.84013 6.88468C1.78077 6.95326 1.75108 7.04262 1.7576 7.13309C1.76412 7.22356 1.80631 7.30774 1.87489 7.3671L2.38759 7.81026Z" fill="#737F8A"/>
<path d="M5.49997 2.93896C5.61748 2.93896 5.73236 2.90411 5.83007 2.83881C5.92779 2.77352 6.00394 2.68072 6.0489 2.57214C6.09387 2.46356 6.10562 2.34409 6.08268 2.22883C6.05974 2.11357 6.00313 2.00771 5.92002 1.92462C5.83691 1.84154 5.73102 1.78497 5.61576 1.76206C5.50049 1.73916 5.38102 1.75096 5.27246 1.79595C5.1639 1.84095 5.07112 1.91714 5.00586 2.01487C4.9406 2.1126 4.90578 2.22749 4.90582 2.34501C4.90598 2.50252 4.96863 2.65353 5.08003 2.76489C5.19142 2.87625 5.34246 2.93886 5.49997 2.93896ZM5.49997 2.25536C5.51771 2.25532 5.53506 2.26055 5.54983 2.27038C5.56459 2.2802 5.57611 2.29419 5.58293 2.31057C5.58975 2.32695 5.59155 2.34498 5.58811 2.36238C5.58467 2.37978 5.57615 2.39578 5.56362 2.40833C5.55109 2.42089 5.53512 2.42945 5.51772 2.43292C5.50033 2.4364 5.48229 2.43463 5.4659 2.42785C5.44951 2.42107 5.43549 2.40958 5.42564 2.39484C5.41578 2.38009 5.41051 2.36275 5.41051 2.34501C5.41051 2.32127 5.41993 2.2985 5.4367 2.28169C5.45347 2.26488 5.47622 2.25541 5.49997 2.25536Z" fill="#737F8A"/>
</svg>
